<svg xmlns="http://www.w3.org/2000/svg" width="943.9998779296875" height="445.99993896484375" style="
        width:943.9998779296875px;
        height:445.99993896484375px;
        background: transparent;
        fill: none;
">
        
        <svg xmlns="http://www.w3.org/2000/svg" class="role-diagram-draw-area"><g class="shapes-region" style="stroke: black; fill: none;"><g class="composite-shape"><path class="real" d=" M679.62,285.24 L882.17,225.1 L714.78,393.9 Z" style="stroke-width: 1; stroke: none; fill: rgb(135, 169, 145);"/></g><g class="composite-shape"><path class="real" d=" M678.26,285.88 L716.06,392.6 L546.8,225.58 Z" style="stroke-width: 1; stroke: none; fill: rgb(214, 190, 199);"/></g><g class="composite-shape"><path class="real" d=" M715.7,57.2 L883.01,225.94 L680.64,288.24 Z" style="stroke-width: 1; stroke: none; fill: rgb(159, 206, 146);"/></g><g class="composite-shape"><path class="real" d=" M716.04,58.81 L680.64,288.24 L546.8,225.58 Z" style="stroke-width: 1; stroke: none; fill: rgb(234, 189, 148);"/></g><g class="arrow-line"><path class="connection real" stroke-dasharray="2.25 3.685" d="  M748.38,159.65 L882.93,225.75" style="stroke: rgba(0, 0, 0, 0.21); stroke-width: 2; fill: none;"/></g><g class="arrow-line"><path class="connection real" stroke-dasharray="2.25 3.685" d="  M748.38,159.65 L546.8,225.58" style="stroke: rgba(0, 0, 0, 0.21); stroke-width: 2; fill: none;"/></g><g class="arrow-line"><path class="connection real" stroke-dasharray="2.25 3.685" d="  M714.78,57.6 L748.38,159.65" style="stroke: rgba(0, 0, 0, 0.21); stroke-width: 2; fill: none;"/></g><g class="arrow-line"><path class="connection real" stroke-dasharray="2.25 3.685" d="  M748.38,159.65 L714.78,393.9" style="stroke: rgba(0, 0, 0, 0.21); stroke-width: 2; fill: none;"/></g><g class="arrow-line"><path class="connection real" stroke-dasharray="" d="  M236.75,99.16 L237.93,250.59" style="stroke: rgb(155, 155, 155); stroke-width: 1; fill: none;"/></g><g class="arrow-line"><path class="connection real" stroke-dasharray="" d="  M178.65,225.06 L396.74,225.35" style="stroke: rgb(0, 0, 0); stroke-width: 2; fill: none;"/><g stroke="none" fill="#000" transform="matrix(-0.9999990252244151,-0.0013962629479145109,0.0013962629479145109,-0.9999990252244151,399.74315660767405,225.34930053230093)" style="stroke: none; fill: rgb(0, 0, 0); stroke-width: 2;"><path d=" M13.4,-6.43 L0,0 L13.4,6.44 L8.9,0 Z"/></g></g><g class="arrow-line"><path class="connection real" stroke-dasharray="" d="  M178.65,225.06 L179.45,6.89" style="stroke: rgb(0, 0, 0); stroke-width: 2; fill: none;"/><g stroke="none" fill="#000" transform="matrix(-0.0036651832230565717,0.999993283193413,-0.999993283193413,-0.0036651832230565717,179.45656414682816,3.8888888888888573)" style="stroke: none; fill: rgb(0, 0, 0); stroke-width: 2;"><path d=" M13.4,-6.43 L0,0 L13.4,6.44 L8.9,0 Z"/></g></g><g class="composite-shape"><path class="real" d=" M10.5,225.06 C10.5,132.19 85.78,56.91 178.65,56.91 C271.52,56.91 346.8,132.19 346.8,225.06 C346.8,317.92 271.52,393.21 178.65,393.21 C85.78,393.21 10.5,317.92 10.5,225.06 Z" style="stroke-width: 3; stroke: rgb(0, 0, 0); fill: none;"/></g><g class="composite-shape"><path class="real" d=" M10.5,225.06 C10.5,202.2 85.78,183.68 178.65,183.68 C271.52,183.68 346.8,202.2 346.8,225.06 C346.8,247.91 271.52,266.43 178.65,266.43 C85.78,266.43 10.5,247.91 10.5,225.06 Z" style="stroke-width: 2; stroke: rgb(0, 0, 0); fill: none; stroke-dasharray: 7.5, 6;"/></g><g class="composite-shape"><path class="real" d=" M170.73,56.73 C170.73,52.26 174.35,48.63 178.83,48.63 C183.3,48.63 186.92,52.26 186.92,56.73 C186.92,61.2 183.3,64.83 178.83,64.83 C174.35,64.83 170.73,61.2 170.73,56.73 Z" style="stroke-width: 2; stroke: rgb(0, 0, 0); fill: rgb(255, 255, 255);"/></g><g class="composite-shape"><path class="real" d=" M170.55,393.21 C170.55,388.73 174.18,385.11 178.65,385.11 C183.12,385.11 186.75,388.73 186.75,393.21 C186.75,397.68 183.12,401.3 178.65,401.3 C174.18,401.3 170.55,397.68 170.55,393.21 Z" style="stroke-width: 2; stroke: rgb(0, 0, 0); fill: rgb(255, 255, 255);"/></g><g class="arrow-line"><path class="connection real" stroke-dasharray="" d="  M178.65,225.06 L114.91,289.31" style="stroke: rgb(0, 0, 0); stroke-width: 2; fill: none;"/><g stroke="none" fill="#000" transform="matrix(0.7042625830219869,-0.7099395848628242,0.7099395848628242,0.7042625830219869,112.79827327653231,291.4352355079279)" style="stroke: none; fill: rgb(0, 0, 0); stroke-width: 2;"><path d=" M13.4,-6.43 L0,0 L13.4,6.44 L8.9,0 Z"/></g></g><g class="arrow-line"><path class="connection real" stroke-dasharray="" d="  M178.65,225.06 L236.75,99.16" style="stroke: rgb(0, 0, 0); stroke-width: 2; fill: none;"/></g><g class="composite-shape"><path class="real" d=" M232.35,99.16 C232.35,96.73 234.32,94.76 236.75,94.76 C239.18,94.76 241.16,96.73 241.16,99.16 C241.16,101.59 239.18,103.57 236.75,103.57 C234.32,103.57 232.35,101.59 232.35,99.16 Z" style="stroke-width: 1; stroke: none; fill: rgb(0, 0, 0);"/></g><g class="arrow-line"><path class="connection real" stroke-dasharray="" d="  M178.65,225.06 L237.93,250.59" style="stroke: rgb(155, 155, 155); stroke-width: 1; fill: none;"/></g><g class="arrow-line"><path class="connection real" stroke-dasharray="" d="  M162.63,241.43 C190.09,250.94 205.94,236.5 204.88,236.15" style="stroke: rgb(0, 0, 0); stroke-width: 1; fill: none;"/></g><g class="arrow-line"><path class="connection real" stroke-dasharray="" d="  M179.18,157.27 C183.4,156.92 201.36,160.09 205.94,166.42" style="stroke: rgb(0, 0, 0); stroke-width: 1; fill: none;"/></g><g class="composite-shape"><path class="real" d=" M546.63,225.75 C546.63,132.88 621.91,57.6 714.78,57.6 C807.64,57.6 882.93,132.88 882.93,225.75 C882.93,318.62 807.64,393.9 714.78,393.9 C621.91,393.9 546.63,318.62 546.63,225.75 Z" style="stroke-width: 3; stroke: rgb(0, 0, 0); fill: none;"/></g><g class="arrow-line"><path class="connection real" stroke-dasharray="" d="  M546.63,225.75 L714.95,57.43" style="stroke: rgb(0, 0, 0); stroke-width: 2; fill: none;"/></g><g class="arrow-line"><path class="connection real" stroke-dasharray="" d="  M882.93,225.75 L714.78,57.6" style="stroke: rgb(0, 0, 0); stroke-width: 2; fill: none;"/></g><g class="arrow-line"><path class="connection real" stroke-dasharray="" d="  M714.78,393.9 L882.93,225.75" style="stroke: rgb(0, 0, 0); stroke-width: 2; fill: none;"/></g><g class="arrow-line"><path class="connection real" stroke-dasharray="" d="  M546.8,225.58 L714.78,393.9" style="stroke: rgb(0, 0, 0); stroke-width: 2; fill: none;"/></g><g class="arrow-line"><path class="connection real" stroke-dasharray="" d="  M882.93,225.75 L680.59,288.18" style="stroke: rgb(0, 0, 0); stroke-width: 2; fill: none;"/></g><g class="arrow-line"><path class="connection real" stroke-dasharray="" d="  M680.59,288.18 L546.8,225.58" style="stroke: rgb(0, 0, 0); stroke-width: 2; fill: none;"/></g><g class="arrow-line"><path class="connection real" stroke-dasharray="" d="  M680.59,288.18 L714.78,57.6" style="stroke: rgb(0, 0, 0); stroke-width: 2; fill: none;"/></g><g class="arrow-line"><path class="connection real" stroke-dasharray="" d="  M714.78,393.9 L680.59,288.18" style="stroke: rgb(0, 0, 0); stroke-width: 2; fill: none;"/></g><g class="composite-shape"><path class="real" d=" M706.85,57.43 C706.85,52.95 710.48,49.33 714.95,49.33 C719.43,49.33 723.05,52.95 723.05,57.43 C723.05,61.9 719.43,65.52 714.95,65.52 C710.48,65.52 706.85,61.9 706.85,57.43 Z" style="stroke-width: 2; stroke: rgb(0, 0, 0); fill: rgb(255, 255, 255);"/></g><g class="composite-shape"><path class="real" d=" M706.68,393.9 C706.68,389.43 710.3,385.8 714.78,385.8 C719.25,385.8 722.88,389.43 722.88,393.9 C722.88,398.37 719.25,402 714.78,402 C710.3,402 706.68,398.37 706.68,393.9 Z" style="stroke-width: 2; stroke: rgb(0, 0, 0); fill: rgb(255, 255, 255);"/></g><g class="composite-shape"><path class="real" d=" M874.83,225.75 C874.83,221.28 878.45,217.65 882.93,217.65 C887.4,217.65 891.03,221.28 891.03,225.75 C891.03,230.22 887.4,233.85 882.93,233.85 C878.45,233.85 874.83,230.22 874.83,225.75 Z" style="stroke-width: 2; stroke: rgb(0, 0, 0); fill: rgb(255, 255, 255);"/></g><g class="composite-shape"><path class="real" d=" M672.49,288.18 C672.49,283.71 676.12,280.08 680.59,280.08 C685.06,280.08 688.69,283.71 688.69,288.18 C688.69,292.66 685.06,296.28 680.59,296.28 C676.12,296.28 672.49,292.66 672.49,288.18 Z" style="stroke-width: 2; stroke: rgb(0, 0, 0); fill: rgb(255, 255, 255);"/></g><g class="composite-shape"><path class="real" d=" M538.53,225.75 C538.53,221.28 542.16,217.65 546.63,217.65 C551.1,217.65 554.73,221.28 554.73,225.75 C554.73,230.22 551.1,233.85 546.63,233.85 C542.16,233.85 538.53,230.22 538.53,225.75 Z" style="stroke-width: 2; stroke: rgb(0, 0, 0); fill: rgb(255, 255, 255);"/></g><g/></g><g/><g/><!-- react-empty: 437 --></svg>
        <svg xmlns="http://www.w3.org/2000/svg" width="941.9998779296875" height="443.99993896484375" style="width:941.9998779296875px;height:443.99993896484375px;font-family:Asana-Math, Asana;background:transparent;"><g><g><g style="transform:matrix(1,0,0,1,188.9296875,153.5424771118164);"><path d="M237 -16C473 -16 572 316 576 504C578 618 546 702 419 702C159 702 72 412 69 199C67 80 101 -16 237 -16ZM401 676C536 676 506 491 485 381L169 381C194 485 272 676 401 676ZM253 13C102 13 147 261 163 349L479 349C454 237 396 13 253 13Z" stroke="rgb(0, 0, 0)" stroke-width="8" fill="rgb(0, 0, 0)" style="transform:matrix(0.024480000000000002,0,0,-0.024480000000000002,0,0);"></path></g></g></g><g><g><g style="transform:matrix(1,0,0,1,178.3828125,259.6049771118164);"><path d="M522 473C432 473 333 398 296 322C266 261 244 86 234 17C141 41 110 116 112 206C114 343 192 432 321 468L321 485C172 462 32 363 29 201C27 73 113 11 232 -6C220 -94 199 -190 180 -277C203 -266 235 -258 257 -251L290 -4C476 0 639 142 643 332C645 412 609 473 522 473ZM485 440C555 440 573 375 572 317C569 156 451 32 291 15L322 178C339 267 364 440 485 440Z" stroke="rgb(0, 0, 0)" stroke-width="8" fill="rgb(0, 0, 0)" style="transform:matrix(0.024480000000000002,0,0,-0.024480000000000002,0,0);"></path></g></g></g><g><g><g style="transform:matrix(1,0,0,1,247.109375,126.62060211181641);"><path d="M135 -172L135 713L76 713L76 -172Z" stroke="rgb(0, 0, 0)" stroke-width="8" fill="rgb(0, 0, 0)" style="transform:matrix(0.024480000000000002,0,0,-0.024480000000000002,0,0);"></path></g><g style="transform:matrix(1,0,0,1,252.25,126.62060211181641);"><path d="M209 428C209 445 202 463 182 463C151 463 67 413 39 394L39 378L50 378L50 377C68 387 87 399 107 399C175 399 99 224 95 120C90 -3 185 -21 296 -8C279 -96 266 -186 239 -271L239 -281C259 -274 280 -264 300 -254C306 -171 316 -88 326 -5C482 24 651 212 653 372C653 391 651 458 623 458C608 458 572 442 557 438L557 425C637 247 508 59 334 38C378 251 413 465 463 676L463 682C444 677 427 671 410 662C386 454 344 243 304 36L283 36C79 26 205 310 209 428Z" stroke="rgb(0, 0, 0)" stroke-width="8" fill="rgb(0, 0, 0)" style="transform:matrix(0.024480000000000002,0,0,-0.024480000000000002,0,0);"></path></g><g style="transform:matrix(1,0,0,1,269.25,126.62060211181641);"><path d="M329 271L103 713L53 713L257 271L53 -172L103 -172Z" stroke="rgb(0, 0, 0)" stroke-width="8" fill="rgb(0, 0, 0)" style="transform:matrix(0.024480000000000002,0,0,-0.024480000000000002,0,0);"></path></g></g></g><g><g><g style="transform:matrix(1,0,0,1,484.92962646484375,232.6206021118164);"><path d="M135 -172L135 713L76 713L76 -172Z" stroke="rgb(0, 0, 0)" stroke-width="8" fill="rgb(0, 0, 0)" style="transform:matrix(0.024480000000000002,0,0,-0.024480000000000002,0,0);"></path></g><g style="transform:matrix(1,0,0,1,494.07025146484375,232.6206021118164);"><path d="M555 243L555 299L51 299L51 243Z" stroke="rgb(0, 0, 0)" stroke-width="8" fill="rgb(0, 0, 0)" style="transform:matrix(0.024480000000000002,0,0,-0.024480000000000002,0,0);"></path></g><g style="transform:matrix(1,0,0,1,512.8671264648438,232.6206021118164);"><path d="M34 388L41 368L73 389C110 412 113 414 120 414C130 414 138 404 138 391C138 384 134 361 130 347L64 107C56 76 51 49 51 30C51 6 62 -9 81 -9C107 -9 143 12 241 85L231 103L205 86C176 67 153 56 144 56C137 56 131 66 131 76C131 86 133 95 138 116L215 420C219 437 221 448 221 456C221 473 212 482 196 482C174 482 137 461 62 408ZM228 712C199 712 170 679 170 645C170 620 185 604 209 604C240 604 264 633 264 671C264 695 249 712 228 712Z" stroke="rgb(0, 0, 0)" stroke-width="8" fill="rgb(0, 0, 0)" style="transform:matrix(0.024480000000000002,0,0,-0.024480000000000002,0,0);"></path></g><g style="transform:matrix(1,0,0,1,519.6327514648438,232.6206021118164);"><path d="M329 271L103 713L53 713L257 271L53 -172L103 -172Z" stroke="rgb(0, 0, 0)" stroke-width="8" fill="rgb(0, 0, 0)" style="transform:matrix(0.024480000000000002,0,0,-0.024480000000000002,0,0);"></path></g></g></g><g><g><g style="transform:matrix(1,0,0,1,704.5077514648438,435.6205715942383);"><path d="M135 -172L135 713L76 713L76 -172Z" stroke="rgb(0, 0, 0)" stroke-width="8" fill="rgb(0, 0, 0)" style="transform:matrix(0.024480000000000002,0,0,-0.024480000000000002,0,0);"></path></g><g style="transform:matrix(1,0,0,1,709.6483764648438,435.6205715942383);"><path d="M418 -3L418 27L366 30C311 33 301 44 301 96L301 700L60 598L67 548L217 614L217 96C217 44 206 33 152 30L96 27L96 -3C250 0 250 0 261 0C292 0 402 -3 418 -3Z" stroke="rgb(0, 0, 0)" stroke-width="8" fill="rgb(0, 0, 0)" style="transform:matrix(0.024480000000000002,0,0,-0.024480000000000002,0,0);"></path></g><g style="transform:matrix(1,0,0,1,721.8515014648438,435.6205715942383);"><path d="M329 271L103 713L53 713L257 271L53 -172L103 -172Z" stroke="rgb(0, 0, 0)" stroke-width="8" fill="rgb(0, 0, 0)" style="transform:matrix(0.024480000000000002,0,0,-0.024480000000000002,0,0);"></path></g></g></g><g><g><g style="transform:matrix(1,0,0,1,702.5077514648438,34.62061737060547);"><path d="M135 -172L135 713L76 713L76 -172Z" stroke="rgb(0, 0, 0)" stroke-width="8" fill="rgb(0, 0, 0)" style="transform:matrix(0.024480000000000002,0,0,-0.024480000000000002,0,0);"></path></g><g style="transform:matrix(1,0,0,1,707.6483764648438,34.62061737060547);"><path d="M263 689C108 689 29 566 29 324C29 207 50 106 85 57C120 8 176 -20 238 -20C389 -20 465 110 465 366C465 585 400 689 263 689ZM245 654C342 654 381 556 381 316C381 103 343 15 251 15C154 15 113 116 113 360C113 571 150 654 245 654Z" stroke="rgb(0, 0, 0)" stroke-width="8" fill="rgb(0, 0, 0)" style="transform:matrix(0.024480000000000002,0,0,-0.024480000000000002,0,0);"></path></g><g style="transform:matrix(1,0,0,1,719.8515014648438,34.62061737060547);"><path d="M329 271L103 713L53 713L257 271L53 -172L103 -172Z" stroke="rgb(0, 0, 0)" stroke-width="8" fill="rgb(0, 0, 0)" style="transform:matrix(0.024480000000000002,0,0,-0.024480000000000002,0,0);"></path></g></g></g><g><g><g style="transform:matrix(1,0,0,1,894.1561889648438,230.6206021118164);"><path d="M135 -172L135 713L76 713L76 -172Z" stroke="rgb(0, 0, 0)" stroke-width="8" fill="rgb(0, 0, 0)" style="transform:matrix(0.024480000000000002,0,0,-0.024480000000000002,0,0);"></path></g><g style="transform:matrix(1,0,0,1,903.2968139648438,230.6206021118164);"><path d="M604 241L604 300L364 300L364 538L305 538L305 300L65 300L65 241L305 241L305 0L364 0L364 241Z" stroke="rgb(0, 0, 0)" stroke-width="8" fill="rgb(0, 0, 0)" style="transform:matrix(0.024480000000000002,0,0,-0.024480000000000002,0,0);"></path></g><g style="transform:matrix(1,0,0,1,923.6405639648438,230.6206021118164);"><path d="M34 388L41 368L73 389C110 412 113 414 120 414C130 414 138 404 138 391C138 384 134 361 130 347L64 107C56 76 51 49 51 30C51 6 62 -9 81 -9C107 -9 143 12 241 85L231 103L205 86C176 67 153 56 144 56C137 56 131 66 131 76C131 86 133 95 138 116L215 420C219 437 221 448 221 456C221 473 212 482 196 482C174 482 137 461 62 408ZM228 712C199 712 170 679 170 645C170 620 185 604 209 604C240 604 264 633 264 671C264 695 249 712 228 712Z" stroke="rgb(0, 0, 0)" stroke-width="8" fill="rgb(0, 0, 0)" style="transform:matrix(0.024480000000000002,0,0,-0.024480000000000002,0,0);"></path></g><g style="transform:matrix(1,0,0,1,930.4061889648438,230.6206021118164);"><path d="M329 271L103 713L53 713L257 271L53 -172L103 -172Z" stroke="rgb(0, 0, 0)" stroke-width="8" fill="rgb(0, 0, 0)" style="transform:matrix(0.024480000000000002,0,0,-0.024480000000000002,0,0);"></path></g></g></g><g><g><g style="transform:matrix(1,0,0,1,628.4686889648438,301.4799771118164);"><path d="M135 -172L135 713L76 713L76 -172Z" stroke="rgb(0, 0, 0)" stroke-width="8" fill="rgb(0, 0, 0)" style="transform:matrix(0.024480000000000002,0,0,-0.024480000000000002,0,0);"></path></g><g style="transform:matrix(1,0,0,1,637.6093139648438,301.4799771118164);"><path d="M604 241L604 300L364 300L364 538L305 538L305 300L65 300L65 241L305 241L305 0L364 0L364 241Z" stroke="rgb(0, 0, 0)" stroke-width="8" fill="rgb(0, 0, 0)" style="transform:matrix(0.024480000000000002,0,0,-0.024480000000000002,0,0);"></path></g><g style="transform:matrix(1,0,0,1,657.9530639648438,301.4799771118164);"><path d="M329 271L103 713L53 713L257 271L53 -172L103 -172Z" stroke="rgb(0, 0, 0)" stroke-width="8" fill="rgb(0, 0, 0)" style="transform:matrix(0.024480000000000002,0,0,-0.024480000000000002,0,0);"></path></g></g></g><g><g><g style="transform:matrix(1,0,0,1,750.3202514648438,152.6206021118164);"><path d="M135 -172L135 713L76 713L76 -172Z" stroke="rgba(0, 0, 0, 0.21)" stroke-width="8" fill="rgba(0, 0, 0, 0.21)" style="transform:matrix(0.024480000000000002,0,0,-0.024480000000000002,0,0);"></path></g><g style="transform:matrix(1,0,0,1,759.4608764648438,152.6206021118164);"><path d="M555 243L555 299L51 299L51 243Z" stroke="rgba(0, 0, 0, 0.21)" stroke-width="8" fill="rgba(0, 0, 0, 0.21)" style="transform:matrix(0.024480000000000002,0,0,-0.024480000000000002,0,0);"></path></g><g style="transform:matrix(1,0,0,1,778.2577514648438,152.6206021118164);"><path d="M329 271L103 713L53 713L257 271L53 -172L103 -172Z" stroke="rgba(0, 0, 0, 0.21)" stroke-width="8" fill="rgba(0, 0, 0, 0.21)" style="transform:matrix(0.024480000000000002,0,0,-0.024480000000000002,0,0);"></path></g></g></g></svg>
</svg>
